A nice comedy thriller by sidique and lal team


General
Complete name                    : E:\Malayalam Movies\Ramji Rao Speaking
Format                           : CDXA/MPEG-
File size                        : 665 MiB
Duration                         : 1h 6mn
Overall bit rate                 : 1 411 Kbps

Video
ID                               : 224 (0xE0)
Format                           : MPEG Video
Format version                   : Version 1
Format settings, BVOP            : Yes
Format settings, Matrix          : Default
Duration                         : 1h 6mn
Bit rate mode                    : Constant
Bit rate                         : 1 150 Kbps
Width                            : 352 pixels
Height                           : 288 pixels
Display aspect ratio             : 4:3
Frame rate                       : 25.000 fps
Standard                         : PAL
Color space                      : YUV
Bit depth                        : 8 bits
Scan type                        : Progressive
Bits/(Pixel*Frame)               : 0.454
Stream size                      : 546 MiB (82%)

Audio
ID                               : 192 (0xC0)
Format                           : MPEG Audio
Format version                   : Version 1
Format profile                   : Layer 2
Duration                         : 1h 5mn
Bit rate mode                    : Constant
Bit rate                         : 224 Kbps
Channel(s)                       : 2 channels
Sampling rate                    : 44.1 KHz
Stream size                      : 106 MiB (16%)

